<?xml version="1.0" encoding="UTF-8"?>
<!DOCTYPE svg PUBLIC "-//W3C//DTD SVG 1.1//EN" "http://www.w3.org/Graphics/SVG/1.1/DTD/svg11.dtd">
<!-- Creator: CorelDRAW X7 -->
<svg xmlns="http://www.w3.org/2000/svg" xml:space="preserve" width="58.8974mm" height="118.43mm" version="1.1" style="shape-rendering:geometricPrecision; text-rendering:geometricPrecision; image-rendering:optimizeQuality; fill-rule:evenodd; clip-rule:evenodd"
viewBox="0 0 489 983"
 xmlns:xlink="http://www.w3.org/1999/xlink">
 <defs>
  <style type="text/css">
   <![CDATA[
    .fil0 {fill:#2B2A29;fill-rule:nonzero}
   ]]>
  </style>
 </defs>
 <g id="Warstwa_x0020_1">
  <metadata id="CorelCorpID_0Corel-Layer"/>
  <g id="_771434192">
   <path class="fil0" d="M397 2l-305 0c-23,0 -44,9 -59,25 -15,15 -24,36 -24,59l0 811c0,23 9,44 24,59 15,15 36,25 59,25l305 0c23,0 43,-10 59,-25 15,-15 24,-36 24,-59l0 -811c0,-23 -9,-44 -24,-59 -16,-16 -36,-25 -59,-25zm-305 -2l305 0c23,0 45,10 60,25 16,16 25,37 25,61l0 811c0,24 -9,45 -25,61 -15,15 -37,25 -60,25l-305 0c-23,0 -45,-10 -60,-25 -16,-16 -25,-37 -25,-61l0 -811c0,-24 9,-45 25,-61 15,-15 37,-25 60,-25z"/>
   <path class="fil0" d="M481 209l7 0 1 0 0 1 0 70 0 1 -1 0 -7 0 -1 0 0 -1 0 -70 0 -1 1 0zm6 2l-5 0 0 68 5 0 0 -68z"/>
   <path class="fil0" d="M1 209l7 0 1 0 0 1 0 70 0 1 -1 0 -7 0 -1 0 0 -1 0 -70 0 -1 1 0zm6 2l-5 0 0 68 5 0 0 -68z"/>
   <path class="fil0" d="M1 303l7 0 1 0 0 1 0 70 0 1 -1 0 -7 0 -1 0 0 -1 0 -70 0 -1 1 0zm6 2l-5 0 0 68 5 0 0 -68z"/>
   <path class="fil0" d="M244 883c11,0 20,4 27,11 7,7 11,16 11,26 0,11 -4,20 -11,27 -7,7 -16,11 -27,11 -10,0 -19,-4 -26,-11 -7,-7 -11,-16 -11,-27 0,-10 4,-19 11,-26 7,-7 16,-11 26,-11zm25 12c-6,-6 -15,-10 -25,-10 -9,0 -18,4 -25,10 -6,7 -10,15 -10,25 0,10 4,19 10,25 7,7 16,11 25,11 10,0 19,-4 25,-11 7,-6 11,-15 11,-25 0,-10 -4,-18 -11,-25z"/>
   <path class="fil0" d="M32 117l425 0 1 0 0 1 0 748 0 1 -1 0 -425 0 -1 0 0 -1 0 -748 0 -1 1 0zm424 2l-423 0 0 746 423 0 0 -746z"/>
   <path class="fil0" d="M209 67l71 0c0,0 1,0 2,-1 0,0 1,-1 1,-2 0,-1 -1,-2 -1,-2 -1,-1 -2,-1 -2,-1l-71 0c-1,0 -2,0 -2,1 -1,0 -1,1 -1,2 0,1 0,2 1,2l0 0c0,1 1,1 2,1zm71 2l-71 0c-1,0 -3,0 -4,-1l0 0c-1,-1 -1,-2 -1,-4 0,-1 0,-3 1,-4 1,-1 3,-1 4,-1l71 0c1,0 2,0 3,1 1,1 2,3 2,4 0,2 -1,3 -2,4 -1,1 -2,1 -3,1z"/>
   <path class="fil0" d="M244 34c2,0 4,1 5,2l0 0c2,1 3,3 3,5 0,2 -1,4 -3,5 -1,1 -3,2 -5,2 -2,0 -3,-1 -5,-2 -1,-1 -2,-3 -2,-5 0,-2 1,-4 2,-5l0 0c2,-1 3,-2 5,-2zm4 3c-1,-1 -2,-1 -4,-1 -1,0 -2,0 -3,1l0 0c-1,1 -2,3 -2,4 0,1 1,3 2,4 1,0 2,1 3,1 2,0 3,-1 4,-1 1,-1 1,-3 1,-4 0,-1 0,-3 -1,-4l0 0z"/>
   <path class="fil0" d="M188 56c2,0 4,1 6,2 1,2 2,4 2,6 0,2 -1,4 -2,6l0 0c-2,2 -4,2 -6,2 -3,0 -5,0 -6,-2 -2,-2 -3,-4 -3,-6 0,-2 1,-4 3,-6l0 0c1,-1 3,-2 6,-2zm4 4c-1,-1 -3,-2 -4,-2 -2,0 -4,1 -5,2 -1,1 -2,2 -2,4 0,2 1,3 2,5 1,1 3,1 5,1 1,0 3,0 4,-1 1,-2 2,-3 2,-5 0,-2 -1,-3 -2,-4z"/>
  </g>
 </g>
</svg>
